<svg version="1.1" xmlns="http://www.w3.org/2000/svg" xmlns:xlink="http://www.w3.org/1999/xlink" x="0px" y="0px"
	 viewBox="0 0 240.2 240.2" style="enable-background:new 0 0 240.2 240.2;" xml:space="preserve">
<style type="text/css">
	.st0{display:none;}
	.st1{display:inline;}
	.st2{fill:none;stroke:#808080;stroke-width:0.25;stroke-miterlimit:10;}
	.st3{display:none;opacity:0.3;}
	.st4{fill:none;stroke:#000000;stroke-width:0.25;stroke-linecap:square;stroke-miterlimit:10;}
	.st5{fill:#A6C61D;}
	.st6{fill:none;stroke:#A4C51D;stroke-width:0.25;stroke-linecap:square;stroke-miterlimit:10;}
</style>
<g id="Слой_1" class="st0">
	<g id="Контур_1_" class="st1">
		<circle class="st2" cx="120.1" cy="120.1" r="50"/>
		<path class="st2" d="M218.1,200.1h-196c-6.6,0-12-5.4-12-12v-136c0-6.6,5.4-12,12-12h196c6.6,0,12,5.4,12,12v136
			C230.1,194.7,224.7,200.1,218.1,200.1z"/>
		<path class="st2" d="M188.1,230.1h-136c-6.6,0-12-5.4-12-12v-196c0-6.6,5.4-12,12-12h136c6.6,0,12,5.4,12,12v196
			C200.1,224.7,194.7,230.1,188.1,230.1z"/>
		<path class="st2" d="M203.1,215.1h-166c-6.6,0-12-5.4-12-12v-166c0-6.6,5.4-12,12-12h166c6.6,0,12,5.4,12,12v166
			C215.1,209.7,209.7,215.1,203.1,215.1z"/>
		<line class="st2" x1="0.1" y1="240.1" x2="240.1" y2="0.1"/>
		<line class="st2" x1="0.1" y1="0.1" x2="240.1" y2="240.1"/>
		<circle class="st2" cx="120.1" cy="120.1" r="110"/>
	</g>
	<g id="Направляющие" class="st1">
	</g>
</g>
<g id="Слой_2" class="st3">
	
		<image style="display:inline;overflow:visible;" width="580" height="596" xlink:href="58394250.png"  transform="matrix(0.3188 0 0 0.3188 27.6387 25.0884)">
	</image>
</g>
<g id="Слой_3">
	<g id="Fumari">
		<g id="XMLID_2_">
			<g>
				<polygon points="103.6,47.4 103.6,83.5 97.4,83.5 97.4,31.6 107.3,31.6 107.3,31.6 112.7,67.8 117.7,31.6 117.7,31.6 
					127.6,31.6 127.6,83.5 121,83.5 121,47.4 115.7,83.5 109.2,83.5 				"/>
				<rect x="186.1" y="31.6" width="7" height="52"/>
				<path d="M182.9,83.6h-7c-1,0-1.9-1.9-1.9-4.3V66.2c0-1-0.4-1.9-1.1-2.6c-0.7-0.7-1.6-1.1-2.6-1.1h-3.7v21h-7v-52l9.2,0
					c9.6,0,12.2,3.3,12.2,11.9v4.2c0,5.7-1.8,9.3-4.6,10.4c1.7,0,4.6,3.2,4.6,8.8v12.4C181.1,81.6,181.9,83.6,182.9,83.6z M174,51.2
					v-8.7c0-1-0.4-1.9-1.1-2.6c-0.7-0.7-1.6-1.1-2.6-1.1h-3.7v16.1h3.7C172.4,54.8,174,53.2,174,51.2z"/>
				<path d="M148.7,31.6l7,51.9h-6.5l-1.8-9.5H139l-1.6,9.5h-6.5l7.4-51.9v-0.1L148.7,31.6L148.7,31.6z M146.5,67l-3.3-25.5L140,67
					H146.5z"/>
				<polygon points="55.8,39 55.8,54.6 65.1,54.6 65.1,54.6 65.1,61.9 55.8,61.9 55.8,83.5 48.9,83.5 48.9,83.5 48.9,31.6 68,31.6 
					68,38.9 68,39 				"/>
			</g>
			<g>
				<line class="st4" x1="48.9" y1="31.6" x2="48.9" y2="83.5"/>
				<line class="st4" x1="68" y1="31.6" x2="48.9" y2="31.6"/>
				<line class="st4" x1="68" y1="38.9" x2="68" y2="31.6"/>
				<line class="st4" x1="55.8" y1="39" x2="68" y2="39"/>
				<polyline class="st4" points="55.8,54.6 55.8,39 55.8,39 				"/>
				<line class="st4" x1="55.8" y1="54.6" x2="65.1" y2="54.6"/>
				<line class="st4" x1="65.1" y1="61.9" x2="65.1" y2="54.6"/>
				<line class="st4" x1="55.8" y1="61.9" x2="65.1" y2="61.9"/>
				<line class="st4" x1="55.8" y1="83.5" x2="55.8" y2="61.9"/>
				<line class="st4" x1="48.9" y1="83.5" x2="55.8" y2="83.5"/>
				<line class="st4" x1="97.4" y1="31.6" x2="97.4" y2="83.5"/>
				<line class="st4" x1="127.6" y1="31.6" x2="127.6" y2="83.5"/>
				<line class="st4" x1="97.4" y1="83.5" x2="103.6" y2="83.5"/>
				<line class="st4" x1="109.2" y1="83.5" x2="115.7" y2="83.5"/>
				<line class="st4" x1="121" y1="83.5" x2="127.6" y2="83.5"/>
				<line class="st4" x1="103.6" y1="83.5" x2="103.6" y2="47.4"/>
				<line class="st4" x1="121" y1="83.5" x2="121" y2="47.4"/>
				<line class="st4" x1="103.6" y1="47.4" x2="109.2" y2="83.5"/>
				<line class="st4" x1="115.7" y1="83.5" x2="121" y2="47.4"/>
				<line class="st4" x1="97.4" y1="31.6" x2="107.3" y2="31.6"/>
				<line class="st4" x1="127.6" y1="31.6" x2="117.7" y2="31.6"/>
				<line class="st4" x1="107.3" y1="31.6" x2="112.7" y2="67.8"/>
				<line class="st4" x1="117.7" y1="31.6" x2="112.7" y2="67.8"/>
				<line class="st4" x1="130.9" y1="83.6" x2="137.4" y2="83.6"/>
				<line class="st4" x1="149.2" y1="83.6" x2="155.7" y2="83.6"/>
				<line class="st4" x1="159.7" y1="83.6" x2="166.7" y2="83.6"/>
				<line class="st4" x1="148.7" y1="31.6" x2="138.3" y2="31.6"/>
				<line class="st4" x1="138.3" y1="31.6" x2="130.9" y2="83.6"/>
				<line class="st4" x1="148.7" y1="31.6" x2="155.7" y2="83.6"/>
				<line class="st4" x1="139" y1="74.1" x2="147.4" y2="74.1"/>
				<line class="st4" x1="137.4" y1="83.6" x2="139" y2="74.1"/>
				<line class="st4" x1="149.2" y1="83.6" x2="147.4" y2="74.1"/>
				<line class="st4" x1="140" y1="67" x2="146.5" y2="67"/>
				<line class="st4" x1="140" y1="67" x2="143.2" y2="41.5"/>
				<line class="st4" x1="146.5" y1="67" x2="143.2" y2="41.5"/>
				<line class="st4" x1="159.7" y1="31.6" x2="159.7" y2="83.6"/>
				<line class="st4" x1="186.1" y1="83.6" x2="193.1" y2="83.6"/>
				<line class="st4" x1="186.1" y1="31.6" x2="186.1" y2="83.6"/>
				<line class="st4" x1="193.1" y1="31.6" x2="193.1" y2="83.6"/>
				<line class="st4" x1="186.1" y1="31.6" x2="193.1" y2="31.6"/>
				<path class="st4" d="M168.9,31.6c9.6,0,12.2,3.3,12.2,11.9"/>
				<path class="st4" d="M181.1,47.8c0,5.7-1.8,9.3-4.6,10.4"/>
				<line class="st4" x1="181.1" y1="43.5" x2="181.1" y2="47.8"/>
				<line class="st4" x1="159.7" y1="31.6" x2="168.9" y2="31.6"/>
				<path class="st4" d="M170.4,54.8h-3.7V38.8h3.7c1,0,1.9,0.4,2.6,1.1c0.7,0.7,1.1,1.6,1.1,2.6v8.7
					C174,53.2,172.4,54.8,170.4,54.8z"/>
				<path class="st4" d="M166.7,83.6v-21h3.7c1,0,1.9,0.4,2.6,1.1c0.7,0.7,1.1,1.6,1.1,2.6v13.1"/>
				<path class="st4" d="M174,79.3c0,2.4,0.8,4.3,1.9,4.3"/>
				<path class="st4" d="M181.1,79.3c0,2.4,0.8,4.3,1.9,4.3"/>
				<line class="st4" x1="175.9" y1="83.6" x2="182.9" y2="83.6"/>
				<path class="st4" d="M181.1,66.9c0-5.6-2.9-8.8-4.6-8.8"/>
				<line class="st4" x1="181.1" y1="66.9" x2="181.1" y2="79.3"/>
			</g>
		</g>
	</g>
	<g id="Зеленый">
		<g id="Узор">
			<g id="XMLID_1_">
				<g>
					<path class="st5" d="M187.6,184.3c1.7,0.1,4.5,3,4.5,8.1V204c0,2.2,0.8,4,1.9,4h-7c-1,0-1.9-1.8-1.9-4v-12.2
						c0-0.9-0.4-1.8-1-2.4c-0.6-0.6-1.4-1-2.3-1h-3.3V208h-6.8v-48l9.2,0l3.4,0c3.5,0,7.9,3.5,7.9,7.7v10.7
						C192.2,181.1,189.6,184.3,187.6,184.3L187.6,184.3z M185.5,178.1l0-8c0-0.9-0.4-1.8-1.1-2.4c-0.6-0.6-1.5-1-2.5-1h-3.6v14.7
						h3.6C183.9,181.5,185.5,180,185.5,178.1z"/>
					<polygon class="st5" points="193.1,138.6 193.1,145.6 173.6,145.6 173.6,97.1 193.1,97.1 193.1,103.9 180.5,103.9 180.5,117.3 
						190.3,117.3 190.3,124.1 180.5,124.1 180.5,138.6 					"/>
					<path class="st5" d="M168.9,118.3V135c0,5.8-4.7,10.5-10.5,10.5c-2.9,0-5.5-1.2-7.4-3.1c-1.9-1.9-3.1-4.5-3.1-7.4v-28.2
						c0-5.8,4.7-10.5,10.5-10.5c2.9,0,5.5,1.2,7.4,3.1c1.9,1.9,3.1,4.5,3.1,7.4v6.2h-6.5v-6.2c0-1-0.4-2-1.1-2.7
						c-0.7-0.7-1.6-1.1-2.7-1.1c-2.1,0-3.8,1.7-3.8,3.8v27.9c0,1,0.4,2,1.1,2.7c0.7,0.7,1.6,1.1,2.7,1.1c2.1,0,3.8-1.7,3.8-3.8v-9.7
						h-3.1v-6.7H168.9z"/>
					<path class="st5" d="M160.7,160l7.1,48h-6.5l-1.8-8.9H151l-1.3,8.9h-6.5l7.5-48H160.7z M158.5,192l-3.3-25.4L152,192H158.5z"/>
					<polygon class="st5" points="143.4,97.1 143.4,144.9 136.1,144.9 127.6,111 127.6,145 127.6,145 120.9,145 120.9,97.3 
						129.8,97.3 137.2,124.8 137.2,97.1 					"/>
					<path class="st5" d="M141,189.9v8.6c0,1.9-0.5,9.4-10.8,9.4h-11v-1v-1.2v-3.3v-1.1V160h11c7.5,0,9.9,4.3,9.9,7.1v8.2
						c0,2.8-2.2,6.8-5,6.8C137.8,182.1,141,186.5,141,189.9z M134.1,197.4v-7.2c0-1.1-0.4-2-1.2-2.8c-0.7-0.7-1.7-1.1-2.8-1.1h-3.9
						v15h3.9C132.4,201.3,134.1,199.6,134.1,197.4z M133.4,175.9v-5.6c0-1-0.4-1.9-1-2.5s-1.5-1-2.5-1h-3.5v12.6h3.5
						C131.8,179.5,133.4,177.9,133.4,175.9z"/>
					<path class="st5" d="M119.2,205.7v1.2c-12.1-15.2-42.7-2.2-62.9-3.6c-12.8-0.9-18.6-2.8-16.7-13.2c1.5,5.9,3.8,9.4,16.2,9.5
						C66.2,199.6,105,186.8,119.2,205.7z"/>
					<path class="st5" d="M119.2,201.3v1.1c-12.5-14.1-52.6-11.5-64.1-14.5c-10.9-2.1-26.5-10.4-14-24.9c10.6-10.5,20-4.3,27.3,4.9
						l-1.8,0.3c-2.2-2.9-4.9-5.1-9.3-5.8c-8-1.1-15.1,5.1-15.1,11.5c0,6.3,7.8,11,14.1,11.7C68.2,187.2,113.8,187.2,119.2,201.3z"/>
					<path class="st5" d="M116.1,97.1v35.1c0,7.1-4.6,12.9-10.3,12.9c-2.8,0-5.4-1.4-7.3-3.8c-1.9-2.3-3-5.5-3-9.1V97.1h6.8v37.7
						c0,1.1,0.4,2.1,1.1,2.8c0.7,0.7,1.7,1.1,2.7,1.1c2.1,0,3.9-1.8,3.9-3.9V97.1H116.1z"/>
					<path class="st5" d="M97.7,171c0.6,1.9,0.5,4,0.5,4.7c0,5.1-4.1,9.2-9.2,9.2c-15,0-17.3-10-22.4-16.8l1.8-0.3
						c1.8,2.3,3.5,4.7,5,7.2c0,0,3.9,7.3,10.9,7.3c4.6,0,8.4-3.8,8.4-8.4c0-4-2.6-6.5-2.6-6.5c-7-7.4-23.2-3.9-23.1-15.3
						c0-5.2,12.4-6.4,10.2-7.6c1.1,0.4,2.3,0.6,3.5,0.6c0.5,0,0.9,0,1.4-0.1c0,4.2-11.9,2.9-11.9,6.9C70.1,165,91.8,155,97.7,171z"
						/>
					<path class="st5" d="M91.2,107v27.4c0,5.3-4,9.8-9.2,10.5c-0.4,0.1-0.9,0.1-1.4,0.1c-1.2,0-2.4-0.2-3.5-0.6c0,0,0,0,0,0
						c-0.1-0.1-0.3-0.1-0.5-0.2c-3.8-1.6-6.5-5.4-6.5-9.7V107c0-5.8,4.8-10.6,10.6-10.6c2.9,0,5.5,1.2,7.5,3.1
						C90,101.5,91.2,104.1,91.2,107z M84.1,135.2v-28.6c0-1-0.4-1.9-1-2.5c-0.7-0.7-1.6-1.1-2.5-1.1c-2,0-3.6,1.6-3.6,3.6v28.6
						c0,2,1.6,3.6,3.6,3.6C82.5,138.8,84.1,137.2,84.1,135.2z"/>
					<path class="st5" d="M86.4,47.8c16.7,13.6,4.8,27.9-0.8,36.8c3.6-11.3,6.3-30.4-3.2-33.6c-8.8-2.5,1.2-16.6,9.4-25.9
						C83.6,34.3,82.6,45,86.4,47.8z"/>
					<path class="st5" d="M83.6,79.7c3.1,0,0,5.3-0.5,5.3c-5.7-0.4-11.8,0.6-11.7-9.4V49.3c7.7,8.6,6.3,22.3,6.3,25.3
						C77.7,80.5,80.3,79.7,83.6,79.7z"/>
					<polygon class="st5" points="67.2,138.4 67.2,145 48.9,145 48.9,97.3 55.9,97.3 55.9,138.4 					"/>
				</g>
				<g>
					<line class="st6" x1="48.9" y1="145" x2="67.2" y2="145"/>
					<line class="st6" x1="48.9" y1="97.3" x2="48.9" y2="145"/>
					<line class="st6" x1="55.9" y1="97.3" x2="55.9" y2="138.4"/>
					<line class="st6" x1="48.9" y1="97.3" x2="55.9" y2="97.3"/>
					<line class="st6" x1="55.9" y1="138.4" x2="67.2" y2="138.4"/>
					<line class="st6" x1="67.2" y1="145" x2="67.2" y2="138.4"/>
					<path class="st6" d="M80.5,138.8c-2,0-3.6-1.6-3.6-3.6v-28.6c0-2,1.6-3.6,3.6-3.6c1,0,1.9,0.4,2.5,1.1c0.6,0.6,1,1.5,1,2.5
						v28.6C84.1,137.2,82.5,138.8,80.5,138.8z"/>
					<path class="st6" d="M116.1,97.1v35.1c0,7.1-4.6,12.9-10.3,12.9c-2.8,0-5.4-1.4-7.3-3.8c-1.9-2.3-3-5.5-3-9.1V97.1"/>
					<path class="st6" d="M110,97.1v37.7c0,2.2-1.7,3.9-3.9,3.9c-1.1,0-2-0.4-2.7-1.1c-0.7-0.7-1.1-1.7-1.1-2.8V97.1"/>
					<line class="st6" x1="95.5" y1="97.1" x2="102.3" y2="97.1"/>
					<line class="st6" x1="110" y1="97.1" x2="116.1" y2="97.1"/>
					<path class="st6" d="M77.1,144.4c-0.2-0.1-0.4-0.1-0.5-0.2c-3.8-1.6-6.5-5.4-6.5-9.7V107c0-5.8,4.8-10.6,10.6-10.6
						c2.9,0,5.5,1.2,7.5,3.1c1.9,1.9,3.1,4.6,3.1,7.5v27.4c0,5.3-4,9.8-9.2,10.5c-0.4,0.1-0.9,0.1-1.4,0.1
						C79.4,145,78.2,144.8,77.1,144.4"/>
					<line class="st6" x1="120.9" y1="145" x2="127.6" y2="145"/>
					<line class="st6" x1="120.9" y1="97.3" x2="120.9" y2="145"/>
					<line class="st6" x1="127.6" y1="111" x2="127.6" y2="145"/>
					<line class="st6" x1="120.9" y1="97.3" x2="129.8" y2="97.3"/>
					<line class="st6" x1="137.2" y1="97.1" x2="143.4" y2="97.1"/>
					<line class="st6" x1="143.4" y1="97.1" x2="143.4" y2="144.9"/>
					<line class="st6" x1="137.2" y1="97.1" x2="137.2" y2="124.8"/>
					<line class="st6" x1="136.1" y1="144.9" x2="143.4" y2="144.9"/>
					<line class="st6" x1="129.8" y1="97.3" x2="137.2" y2="124.8"/>
					<line class="st6" x1="127.6" y1="111" x2="136.1" y2="144.9"/>
					<path class="st6" d="M168.9,135c0,5.8-4.7,10.5-10.5,10.5c-2.9,0-5.5-1.2-7.4-3.1c-1.9-1.9-3.1-4.5-3.1-7.4v-28.2
						c0-5.8,4.7-10.5,10.5-10.5c2.9,0,5.5,1.2,7.4,3.1c1.9,1.9,3.1,4.5,3.1,7.4"/>
					<line class="st6" x1="168.9" y1="118.3" x2="168.9" y2="135"/>
					<line class="st6" x1="168.9" y1="106.9" x2="168.9" y2="113.1"/>
					<path class="st6" d="M162.4,134.8c0,2.1-1.7,3.8-3.8,3.8c-1,0-2-0.4-2.7-1.1c-0.7-0.7-1.1-1.6-1.1-2.7v-27.9
						c0-2.1,1.7-3.8,3.8-3.8c1,0,2,0.4,2.7,1.1c0.7,0.7,1.1,1.6,1.1,2.7"/>
					<polyline class="st6" points="168.9,118.3 159.3,118.3 159.3,125.1 162.4,125.1 					"/>
					<line class="st6" x1="162.4" y1="125.1" x2="162.4" y2="134.8"/>
					<line class="st6" x1="162.4" y1="106.9" x2="162.4" y2="113.1"/>
					<line class="st6" x1="168.9" y1="113.1" x2="162.4" y2="113.1"/>
					<polyline class="st6" points="193.1,145.6 173.6,145.6 173.6,97.1 193.1,97.1 					"/>
					<polyline class="st6" points="190.3,117.3 180.5,117.3 180.5,103.9 193.1,103.9 					"/>
					<polyline class="st6" points="193.1,138.6 180.5,138.6 180.5,124.1 190.3,124.1 					"/>
					<line class="st6" x1="193.1" y1="97.1" x2="193.1" y2="103.9"/>
					<line class="st6" x1="190.3" y1="117.3" x2="190.3" y2="124.1"/>
					<line class="st6" x1="193.1" y1="138.6" x2="193.1" y2="145.6"/>
					<polyline class="st6" points="130.2,207.9 119.2,207.9 119.2,206.9 119.2,205.7 119.2,202.4 119.2,201.3 119.2,160 130.2,160 
											"/>
					<path class="st6" d="M130.2,160c7.5,0,9.9,4.3,9.9,7.1v8.2c0,2.8-2.2,6.8-5,6.8"/>
					<path class="st6" d="M130.2,207.9c10.4,0,10.8-7.5,10.8-9.4v-8.6c0-3.3-3.2-7.8-5.9-7.8"/>
					<path class="st6" d="M129.9,179.5h-3.5v-12.6h3.5c1,0,1.9,0.4,2.5,1s1,1.5,1,2.5v5.6C133.4,177.9,131.8,179.5,129.9,179.5z"/>
					<path class="st6" d="M130.2,201.3h-3.9v-15h3.9c1.1,0,2,0.4,2.8,1.1c0.7,0.7,1.2,1.7,1.2,2.8v7.2
						C134.1,199.6,132.4,201.3,130.2,201.3z"/>
					<line class="st6" x1="143.2" y1="208" x2="149.7" y2="208"/>
					<line class="st6" x1="161.2" y1="208" x2="167.7" y2="208"/>
					<line class="st6" x1="160.7" y1="160" x2="150.7" y2="160"/>
					<line class="st6" x1="150.7" y1="160" x2="143.2" y2="208"/>
					<line class="st6" x1="160.7" y1="160" x2="167.7" y2="208"/>
					<line class="st6" x1="151" y1="199.1" x2="159.4" y2="199.1"/>
					<line class="st6" x1="149.7" y1="208" x2="151" y2="199.1"/>
					<line class="st6" x1="161.2" y1="208" x2="159.4" y2="199.1"/>
					<line class="st6" x1="152" y1="192" x2="158.5" y2="192"/>
					<line class="st6" x1="152" y1="192" x2="155.2" y2="166.5"/>
					<line class="st6" x1="158.5" y1="192" x2="155.2" y2="166.5"/>
					<line class="st6" x1="171.7" y1="208" x2="178.5" y2="208"/>
					<line class="st6" x1="171.7" y1="159.9" x2="171.7" y2="208"/>
					<line class="st6" x1="171.7" y1="159.9" x2="180.9" y2="160"/>
					<path class="st6" d="M181.9,181.5h-3.6v-14.7h3.6c1,0,1.9,0.4,2.5,1c0.7,0.6,1.1,1.4,1.1,2.4l0,8
						C185.5,180,183.9,181.5,181.9,181.5z"/>
					<path class="st6" d="M178.5,208v-19.6h3.3c0.9,0,1.7,0.4,2.3,1c0.6,0.6,1,1.5,1,2.4V204"/>
					<path class="st6" d="M185,204c0,2.2,0.8,4,1.9,4"/>
					<path class="st6" d="M192.1,204c0,2.2,0.8,4,1.9,4"/>
					<line class="st6" x1="186.9" y1="208" x2="193.9" y2="208"/>
					<path class="st6" d="M192.1,192.5c0-5.1-2.8-8.1-4.5-8.1c0,0-0.1,0-0.1,0"/>
					<line class="st6" x1="192.1" y1="192.5" x2="192.1" y2="204"/>
					<path class="st6" d="M180.9,160l3.4,0c3.5,0,7.9,3.5,7.9,7.7v10.7c0,2.7-2.6,5.9-4.6,5.9"/>
					<path class="st6" d="M83,85.1c-5.7-0.4-11.8,0.6-11.7-9.4V49.3"/>
					<path class="st6" d="M71.3,49.3c7.7,8.6,6.3,22.3,6.3,25.3"/>
					<path class="st6" d="M77.6,74.6c0.1,5.8,2.7,5.1,5.9,5.1"/>
					<path class="st6" d="M83.6,79.7c3.1,0,0,5.3-0.5,5.3"/>
					<path class="st6" d="M91.8,25.1c-8.3,9.2-18.3,23.3-9.4,25.9"/>
					<path class="st6" d="M91.8,25.1c-8.3,9.2-9.2,19.9-5.5,22.7"/>
					<path class="st6" d="M82.4,50.9c9.4,3.2,6.8,22.3,3.2,33.6"/>
					<path class="st6" d="M86.4,47.8c16.7,13.6,4.8,27.9-0.8,36.8"/>
					<path class="st6" d="M76.6,144.2c0.2,0.1,0.4,0.1,0.5,0.2c0,0,0,0,0,0c2.3,1.2-10.2,2.4-10.2,7.6"/>
					<path class="st6" d="M67,152c-0.2,11.4,16,7.9,23.1,15.3"/>
					<path class="st6" d="M90,167.4c0,0,2.6,2.5,2.6,6.5c0,4.6-3.8,8.4-8.4,8.4c-7,0-10.9-7.3-10.9-7.3"/>
					<path class="st6" d="M41.1,163c10.6-10.5,20-4.3,27.3,4.9c1.8,2.3,3.5,4.7,5,7.2"/>
					<path class="st6" d="M41.1,163c-12.5,14.5,3.1,22.9,14,24.9"/>
					<path class="st6" d="M55.1,187.9c11.5,3,51.6,0.4,64.1,14.5"/>
					<path class="st6" d="M82,144.9c0,4.2-11.9,2.9-11.9,6.9"/>
					<path class="st6" d="M70.1,151.9c0,13.1,21.8,3.2,27.6,19.2"/>
					<path class="st6" d="M98.2,175.7c0,5.1-4.1,9.2-9.2,9.2"/>
					<path class="st6" d="M97.7,171c0.6,1.9,0.5,4,0.5,4.7"/>
					<path class="st6" d="M57.2,162.3c4.4,0.7,7.2,3,9.3,5.8C71.8,174.9,74,185,89,185"/>
					<path class="st6" d="M56.3,185.5c-6.3-0.7-14.1-5.3-14.1-11.7c0-6.4,7-12.6,15.1-11.5"/>
					<path class="st6" d="M119.2,201.3c-5.4-14.2-51-14.2-62.9-15.8"/>
					<path class="st6" d="M119.2,205.7c-14.2-18.8-53-6.1-63.5-6.2"/>
					<path class="st6" d="M56.3,203.3c20.3,1.4,50.8-11.6,62.9,3.6"/>
					<path class="st6" d="M39.5,190c-1.8,10.5,3.9,12.4,16.7,13.2"/>
					<path class="st6" d="M55.8,199.5c-12.4-0.1-14.7-3.6-16.2-9.5"/>
				</g>
			</g>
		</g>
	</g>
</g>
</svg>
