<svg version="1.1" xmlns="http://www.w3.org/2000/svg" xmlns:xlink="http://www.w3.org/1999/xlink" x="0px" y="0px"
	 viewBox="0 0 240.2 240.2" style="enable-background:new 0 0 240.2 240.2;" xml:space="preserve">
<style type="text/css">
	.st0{display:none;}
	.st1{display:inline;}
	.st2{fill:none;stroke:#808080;stroke-width:0.25;stroke-miterlimit:10;}
	.st3{display:none;opacity:0.3;}
	.st4{fill:none;stroke:#000000;stroke-width:0.25;stroke-linecap:square;stroke-miterlimit:10;}
	.st5{fill:#A6C61D;}
	.st6{fill:none;stroke:#A4C51D;stroke-width:0.25;stroke-linecap:square;stroke-miterlimit:10;}
	.st7{fill:none;stroke:#A6C61D;stroke-width:0.5;stroke-linecap:round;stroke-linejoin:round;}
	.st8{fill:#FFFFFF;}
</style>
<g id="Слой_1" class="st0">
	<g id="Контур_1_" class="st1">
		<circle class="st2" cx="120.1" cy="120.1" r="50"/>
		<path class="st2" d="M218.1,200.1h-196c-6.6,0-12-5.4-12-12v-136c0-6.6,5.4-12,12-12h196c6.6,0,12,5.4,12,12v136
			C230.1,194.7,224.7,200.1,218.1,200.1z"/>
		<path class="st2" d="M188.1,230.1h-136c-6.6,0-12-5.4-12-12v-196c0-6.6,5.4-12,12-12h136c6.6,0,12,5.4,12,12v196
			C200.1,224.7,194.7,230.1,188.1,230.1z"/>
		<path class="st2" d="M203.1,215.1h-166c-6.6,0-12-5.4-12-12v-166c0-6.6,5.4-12,12-12h166c6.6,0,12,5.4,12,12v166
			C215.1,209.7,209.7,215.1,203.1,215.1z"/>
		<line class="st2" x1="0.1" y1="240.1" x2="240.1" y2="0.1"/>
		<line class="st2" x1="0.1" y1="0.1" x2="240.1" y2="240.1"/>
		<circle class="st2" cx="120.1" cy="120.1" r="110"/>
	</g>
	<g id="Направляющие" class="st1">
	</g>
</g>
<g id="Слой_2" class="st3">
	
		<image style="display:inline;overflow:visible;" width="580" height="596" xlink:href="58394250.png"  transform="matrix(0.3188 0 0 0.3188 27.6387 25.0884)">
	</image>
</g>
<g id="Слой_3" class="st0">
	<g id="Fumari" class="st1">
		<g id="XMLID_2_">
			<g>
				<polygon points="103.6,47.4 103.6,83.5 97.4,83.5 97.4,31.6 107.3,31.6 107.3,31.6 112.7,67.8 117.7,31.6 117.7,31.6 
					127.6,31.6 127.6,83.5 121,83.5 121,47.4 115.7,83.5 109.2,83.5 				"/>
				<rect x="186.1" y="31.6" width="7" height="52"/>
				<path d="M182.9,83.6h-7c-1,0-1.9-1.9-1.9-4.3V66.2c0-1-0.4-1.9-1.1-2.6c-0.7-0.7-1.6-1.1-2.6-1.1h-3.7v21h-7v-52l9.2,0
					c9.6,0,12.2,3.3,12.2,11.9v4.2c0,5.7-1.8,9.3-4.6,10.4c1.7,0,4.6,3.2,4.6,8.8v12.4C181.1,81.6,181.9,83.6,182.9,83.6z M174,51.2
					v-8.7c0-1-0.4-1.9-1.1-2.6c-0.7-0.7-1.6-1.1-2.6-1.1h-3.7v16.1h3.7C172.4,54.8,174,53.2,174,51.2z"/>
				<path d="M148.7,31.6l7,51.9h-6.5l-1.8-9.5H139l-1.6,9.5h-6.5l7.4-51.9v-0.1L148.7,31.6L148.7,31.6z M146.5,67l-3.3-25.5L140,67
					H146.5z"/>
				<polygon points="55.8,39 55.8,54.6 65.1,54.6 65.1,54.6 65.1,61.9 55.8,61.9 55.8,83.5 48.9,83.5 48.9,83.5 48.9,31.6 68,31.6 
					68,38.9 68,39 				"/>
			</g>
			<g>
				<line class="st4" x1="48.9" y1="31.6" x2="48.9" y2="83.5"/>
				<line class="st4" x1="68" y1="31.6" x2="48.9" y2="31.6"/>
				<line class="st4" x1="68" y1="38.9" x2="68" y2="31.6"/>
				<line class="st4" x1="55.8" y1="39" x2="68" y2="39"/>
				<polyline class="st4" points="55.8,54.6 55.8,39 55.8,39 				"/>
				<line class="st4" x1="55.8" y1="54.6" x2="65.1" y2="54.6"/>
				<line class="st4" x1="65.1" y1="61.9" x2="65.1" y2="54.6"/>
				<line class="st4" x1="55.8" y1="61.9" x2="65.1" y2="61.9"/>
				<line class="st4" x1="55.8" y1="83.5" x2="55.8" y2="61.9"/>
				<line class="st4" x1="48.9" y1="83.5" x2="55.8" y2="83.5"/>
				<line class="st4" x1="97.4" y1="31.6" x2="97.4" y2="83.5"/>
				<line class="st4" x1="127.6" y1="31.6" x2="127.6" y2="83.5"/>
				<line class="st4" x1="97.4" y1="83.5" x2="103.6" y2="83.5"/>
				<line class="st4" x1="109.2" y1="83.5" x2="115.7" y2="83.5"/>
				<line class="st4" x1="121" y1="83.5" x2="127.6" y2="83.5"/>
				<line class="st4" x1="103.6" y1="83.5" x2="103.6" y2="47.4"/>
				<line class="st4" x1="121" y1="83.5" x2="121" y2="47.4"/>
				<line class="st4" x1="103.6" y1="47.4" x2="109.2" y2="83.5"/>
				<line class="st4" x1="115.7" y1="83.5" x2="121" y2="47.4"/>
				<line class="st4" x1="97.4" y1="31.6" x2="107.3" y2="31.6"/>
				<line class="st4" x1="127.6" y1="31.6" x2="117.7" y2="31.6"/>
				<line class="st4" x1="107.3" y1="31.6" x2="112.7" y2="67.8"/>
				<line class="st4" x1="117.7" y1="31.6" x2="112.7" y2="67.8"/>
				<line class="st4" x1="130.9" y1="83.6" x2="137.4" y2="83.6"/>
				<line class="st4" x1="149.2" y1="83.6" x2="155.7" y2="83.6"/>
				<line class="st4" x1="159.7" y1="83.6" x2="166.7" y2="83.6"/>
				<line class="st4" x1="148.7" y1="31.6" x2="138.3" y2="31.6"/>
				<line class="st4" x1="138.3" y1="31.6" x2="130.9" y2="83.6"/>
				<line class="st4" x1="148.7" y1="31.6" x2="155.7" y2="83.6"/>
				<line class="st4" x1="139" y1="74.1" x2="147.4" y2="74.1"/>
				<line class="st4" x1="137.4" y1="83.6" x2="139" y2="74.1"/>
				<line class="st4" x1="149.2" y1="83.6" x2="147.4" y2="74.1"/>
				<line class="st4" x1="140" y1="67" x2="146.5" y2="67"/>
				<line class="st4" x1="140" y1="67" x2="143.2" y2="41.5"/>
				<line class="st4" x1="146.5" y1="67" x2="143.2" y2="41.5"/>
				<line class="st4" x1="159.7" y1="31.6" x2="159.7" y2="83.6"/>
				<line class="st4" x1="186.1" y1="83.6" x2="193.1" y2="83.6"/>
				<line class="st4" x1="186.1" y1="31.6" x2="186.1" y2="83.6"/>
				<line class="st4" x1="193.1" y1="31.6" x2="193.1" y2="83.6"/>
				<line class="st4" x1="186.1" y1="31.6" x2="193.1" y2="31.6"/>
				<path class="st4" d="M168.9,31.6c9.6,0,12.2,3.3,12.2,11.9"/>
				<path class="st4" d="M181.1,47.8c0,5.7-1.8,9.3-4.6,10.4"/>
				<line class="st4" x1="181.1" y1="43.5" x2="181.1" y2="47.8"/>
				<line class="st4" x1="159.7" y1="31.6" x2="168.9" y2="31.6"/>
				<path class="st4" d="M170.4,54.8h-3.7V38.8h3.7c1,0,1.9,0.4,2.6,1.1c0.7,0.7,1.1,1.6,1.1,2.6v8.7
					C174,53.2,172.4,54.8,170.4,54.8z"/>
				<path class="st4" d="M166.7,83.6v-21h3.7c1,0,1.9,0.4,2.6,1.1c0.7,0.7,1.1,1.6,1.1,2.6v13.1"/>
				<path class="st4" d="M174,79.3c0,2.4,0.8,4.3,1.9,4.3"/>
				<path class="st4" d="M181.1,79.3c0,2.4,0.8,4.3,1.9,4.3"/>
				<line class="st4" x1="175.9" y1="83.6" x2="182.9" y2="83.6"/>
				<path class="st4" d="M181.1,66.9c0-5.6-2.9-8.8-4.6-8.8"/>
				<line class="st4" x1="181.1" y1="66.9" x2="181.1" y2="79.3"/>
			</g>
		</g>
	</g>
	<g id="Зеленый" class="st1">
		<g id="Узор">
			<g id="XMLID_1_">
				<g>
					<path class="st5" d="M187.6,184.3c1.7,0.1,4.5,3,4.5,8.1V204c0,2.2,0.8,4,1.9,4h-7c-1,0-1.9-1.8-1.9-4v-12.2
						c0-0.9-0.4-1.8-1-2.4c-0.6-0.6-1.4-1-2.3-1h-3.3V208h-6.8v-48l9.2,0l3.4,0c3.5,0,7.9,3.5,7.9,7.7v10.7
						C192.2,181.1,189.6,184.3,187.6,184.3L187.6,184.3z M185.5,178.1l0-8c0-0.9-0.4-1.8-1.1-2.4c-0.6-0.6-1.5-1-2.5-1h-3.6v14.7
						h3.6C183.9,181.5,185.5,180,185.5,178.1z"/>
					<polygon class="st5" points="193.1,138.6 193.1,145.6 173.6,145.6 173.6,97.1 193.1,97.1 193.1,103.9 180.5,103.9 180.5,117.3 
						190.3,117.3 190.3,124.1 180.5,124.1 180.5,138.6 					"/>
					<path class="st5" d="M168.9,118.3V135c0,5.8-4.7,10.5-10.5,10.5c-2.9,0-5.5-1.2-7.4-3.1c-1.9-1.9-3.1-4.5-3.1-7.4v-28.2
						c0-5.8,4.7-10.5,10.5-10.5c2.9,0,5.5,1.2,7.4,3.1c1.9,1.9,3.1,4.5,3.1,7.4v6.2h-6.5v-6.2c0-1-0.4-2-1.1-2.7
						c-0.7-0.7-1.6-1.1-2.7-1.1c-2.1,0-3.8,1.7-3.8,3.8v27.9c0,1,0.4,2,1.1,2.7c0.7,0.7,1.6,1.1,2.7,1.1c2.1,0,3.8-1.7,3.8-3.8v-9.7
						h-3.1v-6.7H168.9z"/>
					<path class="st5" d="M160.7,160l7.1,48h-6.5l-1.8-8.9H151l-1.3,8.9h-6.5l7.5-48H160.7z M158.5,192l-3.3-25.4L152,192H158.5z"/>
					<polygon class="st5" points="143.4,97.1 143.4,144.9 136.1,144.9 127.6,111 127.6,145 127.6,145 120.9,145 120.9,97.3 
						129.8,97.3 137.2,124.8 137.2,97.1 					"/>
					<path class="st5" d="M141,189.9v8.6c0,1.9-0.5,9.4-10.8,9.4h-11v-1v-1.2v-3.3v-1.1V160h11c7.5,0,9.9,4.3,9.9,7.1v8.2
						c0,2.8-2.2,6.8-5,6.8C137.8,182.1,141,186.5,141,189.9z M134.1,197.4v-7.2c0-1.1-0.4-2-1.2-2.8c-0.7-0.7-1.7-1.1-2.8-1.1h-3.9
						v15h3.9C132.4,201.3,134.1,199.6,134.1,197.4z M133.4,175.9v-5.6c0-1-0.4-1.9-1-2.5s-1.5-1-2.5-1h-3.5v12.6h3.5
						C131.8,179.5,133.4,177.9,133.4,175.9z"/>
					<path class="st5" d="M119.2,205.7v1.2c-12.1-15.2-42.7-2.2-62.9-3.6c-12.8-0.9-18.6-2.8-16.7-13.2c1.5,5.9,3.8,9.4,16.2,9.5
						C66.2,199.6,105,186.8,119.2,205.7z"/>
					<path class="st5" d="M119.2,201.3v1.1c-12.5-14.1-52.6-11.5-64.1-14.5c-10.9-2.1-26.5-10.4-14-24.9c10.6-10.5,20-4.3,27.3,4.9
						l-1.8,0.3c-2.2-2.9-4.9-5.1-9.3-5.8c-8-1.1-15.1,5.1-15.1,11.5c0,6.3,7.8,11,14.1,11.7C68.2,187.2,113.8,187.2,119.2,201.3z"/>
					<path class="st5" d="M116.1,97.1v35.1c0,7.1-4.6,12.9-10.3,12.9c-2.8,0-5.4-1.4-7.3-3.8c-1.9-2.3-3-5.5-3-9.1V97.1h6.8v37.7
						c0,1.1,0.4,2.1,1.1,2.8c0.7,0.7,1.7,1.1,2.7,1.1c2.1,0,3.9-1.8,3.9-3.9V97.1H116.1z"/>
					<path class="st5" d="M97.7,171c0.6,1.9,0.5,4,0.5,4.7c0,5.1-4.1,9.2-9.2,9.2c-15,0-17.3-10-22.4-16.8l1.8-0.3
						c1.8,2.3,3.5,4.7,5,7.2c0,0,3.9,7.3,10.9,7.3c4.6,0,8.4-3.8,8.4-8.4c0-4-2.6-6.5-2.6-6.5c-7-7.4-23.2-3.9-23.1-15.3
						c0-5.2,12.4-6.4,10.2-7.6c1.1,0.4,2.3,0.6,3.5,0.6c0.5,0,0.9,0,1.4-0.1c0,4.2-11.9,2.9-11.9,6.9C70.1,165,91.8,155,97.7,171z"
						/>
					<path class="st5" d="M91.2,107v27.4c0,5.3-4,9.8-9.2,10.5c-0.4,0.1-0.9,0.1-1.4,0.1c-1.2,0-2.4-0.2-3.5-0.6c0,0,0,0,0,0
						c-0.1-0.1-0.3-0.1-0.5-0.2c-3.8-1.6-6.5-5.4-6.5-9.7V107c0-5.8,4.8-10.6,10.6-10.6c2.9,0,5.5,1.2,7.5,3.1
						C90,101.5,91.2,104.1,91.2,107z M84.1,135.2v-28.6c0-1-0.4-1.9-1-2.5c-0.7-0.7-1.6-1.1-2.5-1.1c-2,0-3.6,1.6-3.6,3.6v28.6
						c0,2,1.6,3.6,3.6,3.6C82.5,138.8,84.1,137.2,84.1,135.2z"/>
					<path class="st5" d="M86.4,47.8c16.7,13.6,4.8,27.9-0.8,36.8c3.6-11.3,6.3-30.4-3.2-33.6c-8.8-2.5,1.2-16.6,9.4-25.9
						C83.6,34.3,82.6,45,86.4,47.8z"/>
					<path class="st5" d="M83.6,79.7c3.1,0,0,5.3-0.5,5.3c-5.7-0.4-11.8,0.6-11.7-9.4V49.3c7.7,8.6,6.3,22.3,6.3,25.3
						C77.7,80.5,80.3,79.7,83.6,79.7z"/>
					<polygon class="st5" points="67.2,138.4 67.2,145 48.9,145 48.9,97.3 55.9,97.3 55.9,138.4 					"/>
				</g>
				<g>
					<line class="st6" x1="48.9" y1="145" x2="67.2" y2="145"/>
					<line class="st6" x1="48.9" y1="97.3" x2="48.9" y2="145"/>
					<line class="st6" x1="55.9" y1="97.3" x2="55.9" y2="138.4"/>
					<line class="st6" x1="48.9" y1="97.3" x2="55.9" y2="97.3"/>
					<line class="st6" x1="55.9" y1="138.4" x2="67.2" y2="138.4"/>
					<line class="st6" x1="67.2" y1="145" x2="67.2" y2="138.4"/>
					<path class="st6" d="M80.5,138.8c-2,0-3.6-1.6-3.6-3.6v-28.6c0-2,1.6-3.6,3.6-3.6c1,0,1.9,0.4,2.5,1.1c0.6,0.6,1,1.5,1,2.5
						v28.6C84.1,137.2,82.5,138.8,80.5,138.8z"/>
					<path class="st6" d="M116.1,97.1v35.1c0,7.1-4.6,12.9-10.3,12.9c-2.8,0-5.4-1.4-7.3-3.8c-1.9-2.3-3-5.5-3-9.1V97.1"/>
					<path class="st6" d="M110,97.1v37.7c0,2.2-1.7,3.9-3.9,3.9c-1.1,0-2-0.4-2.7-1.1c-0.7-0.7-1.1-1.7-1.1-2.8V97.1"/>
					<line class="st6" x1="95.5" y1="97.1" x2="102.3" y2="97.1"/>
					<line class="st6" x1="110" y1="97.1" x2="116.1" y2="97.1"/>
					<path class="st6" d="M77.1,144.4c-0.2-0.1-0.4-0.1-0.5-0.2c-3.8-1.6-6.5-5.4-6.5-9.7V107c0-5.8,4.8-10.6,10.6-10.6
						c2.9,0,5.5,1.2,7.5,3.1c1.9,1.9,3.1,4.6,3.1,7.5v27.4c0,5.3-4,9.8-9.2,10.5c-0.4,0.1-0.9,0.1-1.4,0.1
						C79.4,145,78.2,144.8,77.1,144.4"/>
					<line class="st6" x1="120.9" y1="145" x2="127.6" y2="145"/>
					<line class="st6" x1="120.9" y1="97.3" x2="120.9" y2="145"/>
					<line class="st6" x1="127.6" y1="111" x2="127.6" y2="145"/>
					<line class="st6" x1="120.9" y1="97.3" x2="129.8" y2="97.3"/>
					<line class="st6" x1="137.2" y1="97.1" x2="143.4" y2="97.1"/>
					<line class="st6" x1="143.4" y1="97.1" x2="143.4" y2="144.9"/>
					<line class="st6" x1="137.2" y1="97.1" x2="137.2" y2="124.8"/>
					<line class="st6" x1="136.1" y1="144.9" x2="143.4" y2="144.9"/>
					<line class="st6" x1="129.8" y1="97.3" x2="137.2" y2="124.8"/>
					<line class="st6" x1="127.6" y1="111" x2="136.1" y2="144.9"/>
					<path class="st6" d="M168.9,135c0,5.8-4.7,10.5-10.5,10.5c-2.9,0-5.5-1.2-7.4-3.1c-1.9-1.9-3.1-4.5-3.1-7.4v-28.2
						c0-5.8,4.7-10.5,10.5-10.5c2.9,0,5.5,1.2,7.4,3.1c1.9,1.9,3.1,4.5,3.1,7.4"/>
					<line class="st6" x1="168.9" y1="118.3" x2="168.9" y2="135"/>
					<line class="st6" x1="168.9" y1="106.9" x2="168.9" y2="113.1"/>
					<path class="st6" d="M162.4,134.8c0,2.1-1.7,3.8-3.8,3.8c-1,0-2-0.4-2.7-1.1c-0.7-0.7-1.1-1.6-1.1-2.7v-27.9
						c0-2.1,1.7-3.8,3.8-3.8c1,0,2,0.4,2.7,1.1c0.7,0.7,1.1,1.6,1.1,2.7"/>
					<polyline class="st6" points="168.9,118.3 159.3,118.3 159.3,125.1 162.4,125.1 					"/>
					<line class="st6" x1="162.4" y1="125.1" x2="162.4" y2="134.8"/>
					<line class="st6" x1="162.4" y1="106.9" x2="162.4" y2="113.1"/>
					<line class="st6" x1="168.9" y1="113.1" x2="162.4" y2="113.1"/>
					<polyline class="st6" points="193.1,145.6 173.6,145.6 173.6,97.1 193.1,97.1 					"/>
					<polyline class="st6" points="190.3,117.3 180.5,117.3 180.5,103.9 193.1,103.9 					"/>
					<polyline class="st6" points="193.1,138.6 180.5,138.6 180.5,124.1 190.3,124.1 					"/>
					<line class="st6" x1="193.1" y1="97.1" x2="193.1" y2="103.9"/>
					<line class="st6" x1="190.3" y1="117.3" x2="190.3" y2="124.1"/>
					<line class="st6" x1="193.1" y1="138.6" x2="193.1" y2="145.6"/>
					<polyline class="st6" points="130.2,207.9 119.2,207.9 119.2,206.9 119.2,205.7 119.2,202.4 119.2,201.3 119.2,160 130.2,160 
											"/>
					<path class="st6" d="M130.2,160c7.5,0,9.9,4.3,9.9,7.1v8.2c0,2.8-2.2,6.8-5,6.8"/>
					<path class="st6" d="M130.2,207.9c10.4,0,10.8-7.5,10.8-9.4v-8.6c0-3.3-3.2-7.8-5.9-7.8"/>
					<path class="st6" d="M129.9,179.5h-3.5v-12.6h3.5c1,0,1.9,0.4,2.5,1s1,1.5,1,2.5v5.6C133.4,177.9,131.8,179.5,129.9,179.5z"/>
					<path class="st6" d="M130.2,201.3h-3.9v-15h3.9c1.1,0,2,0.4,2.8,1.1c0.7,0.7,1.2,1.7,1.2,2.8v7.2
						C134.1,199.6,132.4,201.3,130.2,201.3z"/>
					<line class="st6" x1="143.2" y1="208" x2="149.7" y2="208"/>
					<line class="st6" x1="161.2" y1="208" x2="167.7" y2="208"/>
					<line class="st6" x1="160.7" y1="160" x2="150.7" y2="160"/>
					<line class="st6" x1="150.7" y1="160" x2="143.2" y2="208"/>
					<line class="st6" x1="160.7" y1="160" x2="167.7" y2="208"/>
					<line class="st6" x1="151" y1="199.1" x2="159.4" y2="199.1"/>
					<line class="st6" x1="149.7" y1="208" x2="151" y2="199.1"/>
					<line class="st6" x1="161.2" y1="208" x2="159.4" y2="199.1"/>
					<line class="st6" x1="152" y1="192" x2="158.5" y2="192"/>
					<line class="st6" x1="152" y1="192" x2="155.2" y2="166.5"/>
					<line class="st6" x1="158.5" y1="192" x2="155.2" y2="166.5"/>
					<line class="st6" x1="171.7" y1="208" x2="178.5" y2="208"/>
					<line class="st6" x1="171.7" y1="159.9" x2="171.7" y2="208"/>
					<line class="st6" x1="171.7" y1="159.9" x2="180.9" y2="160"/>
					<path class="st6" d="M181.9,181.5h-3.6v-14.7h3.6c1,0,1.9,0.4,2.5,1c0.7,0.6,1.1,1.4,1.1,2.4l0,8
						C185.5,180,183.9,181.5,181.9,181.5z"/>
					<path class="st6" d="M178.5,208v-19.6h3.3c0.9,0,1.7,0.4,2.3,1c0.6,0.6,1,1.5,1,2.4V204"/>
					<path class="st6" d="M185,204c0,2.2,0.8,4,1.9,4"/>
					<path class="st6" d="M192.1,204c0,2.2,0.8,4,1.9,4"/>
					<line class="st6" x1="186.9" y1="208" x2="193.9" y2="208"/>
					<path class="st6" d="M192.1,192.5c0-5.1-2.8-8.1-4.5-8.1c0,0-0.1,0-0.1,0"/>
					<line class="st6" x1="192.1" y1="192.5" x2="192.1" y2="204"/>
					<path class="st6" d="M180.9,160l3.4,0c3.5,0,7.9,3.5,7.9,7.7v10.7c0,2.7-2.6,5.9-4.6,5.9"/>
					<path class="st6" d="M83,85.1c-5.7-0.4-11.8,0.6-11.7-9.4V49.3"/>
					<path class="st6" d="M71.3,49.3c7.7,8.6,6.3,22.3,6.3,25.3"/>
					<path class="st6" d="M77.6,74.6c0.1,5.8,2.7,5.1,5.9,5.1"/>
					<path class="st6" d="M83.6,79.7c3.1,0,0,5.3-0.5,5.3"/>
					<path class="st6" d="M91.8,25.1c-8.3,9.2-18.3,23.3-9.4,25.9"/>
					<path class="st6" d="M91.8,25.1c-8.3,9.2-9.2,19.9-5.5,22.7"/>
					<path class="st6" d="M82.4,50.9c9.4,3.2,6.8,22.3,3.2,33.6"/>
					<path class="st6" d="M86.4,47.8c16.7,13.6,4.8,27.9-0.8,36.8"/>
					<path class="st6" d="M76.6,144.2c0.2,0.1,0.4,0.1,0.5,0.2c0,0,0,0,0,0c2.3,1.2-10.2,2.4-10.2,7.6"/>
					<path class="st6" d="M67,152c-0.2,11.4,16,7.9,23.1,15.3"/>
					<path class="st6" d="M90,167.4c0,0,2.6,2.5,2.6,6.5c0,4.6-3.8,8.4-8.4,8.4c-7,0-10.9-7.3-10.9-7.3"/>
					<path class="st6" d="M41.1,163c10.6-10.5,20-4.3,27.3,4.9c1.8,2.3,3.5,4.7,5,7.2"/>
					<path class="st6" d="M41.1,163c-12.5,14.5,3.1,22.9,14,24.9"/>
					<path class="st6" d="M55.1,187.9c11.5,3,51.6,0.4,64.1,14.5"/>
					<path class="st6" d="M82,144.9c0,4.2-11.9,2.9-11.9,6.9"/>
					<path class="st6" d="M70.1,151.9c0,13.1,21.8,3.2,27.6,19.2"/>
					<path class="st6" d="M98.2,175.7c0,5.1-4.1,9.2-9.2,9.2"/>
					<path class="st6" d="M97.7,171c0.6,1.9,0.5,4,0.5,4.7"/>
					<path class="st6" d="M57.2,162.3c4.4,0.7,7.2,3,9.3,5.8C71.8,174.9,74,185,89,185"/>
					<path class="st6" d="M56.3,185.5c-6.3-0.7-14.1-5.3-14.1-11.7c0-6.4,7-12.6,15.1-11.5"/>
					<path class="st6" d="M119.2,201.3c-5.4-14.2-51-14.2-62.9-15.8"/>
					<path class="st6" d="M119.2,205.7c-14.2-18.8-53-6.1-63.5-6.2"/>
					<path class="st6" d="M56.3,203.3c20.3,1.4,50.8-11.6,62.9,3.6"/>
					<path class="st6" d="M39.5,190c-1.8,10.5,3.9,12.4,16.7,13.2"/>
					<path class="st6" d="M55.8,199.5c-12.4-0.1-14.7-3.6-16.2-9.5"/>
				</g>
			</g>
		</g>
	</g>
</g>
<g id="Слой_4" class="st0">
	<g id="Fumari_1_" class="st1">
		<g id="XMLID_4_">
			<g>
				<rect x="219.3" y="56.1" width="10.6" height="79.1"/>
				<path d="M214.5,135.2h-10.7c-1.6,0-2.9-2.9-2.9-6.5v-19.9c0-1.5-0.6-2.9-1.6-3.9c-1-1-2.4-1.6-3.9-1.6h-5.6v31.9h-10.6V56.1
					l14,0c14.7,0,18.6,5,18.6,18.2v6.4c0,8.7-2.7,14.1-7,15.8c2.5,0,7,4.9,6.9,13.3v18.8C211.6,132.2,212.9,135.2,214.5,135.2z
					 M200.9,85.9V72.6c0-1.5-0.6-2.9-1.6-3.9c-1-1-2.4-1.6-3.9-1.6h-5.6v24.4h5.6C198.4,91.5,200.9,89,200.9,85.9z"/>
				<path d="M162.4,56.1l10.7,79h-9.9l-2.8-14.4h-12.8l-2.5,14.4h-9.9l11.3-79v-0.1L162.4,56.1L162.4,56.1z M159,110l-4.9-38.7
					l-4.9,38.7H159z"/>
				<polygon points="130.3,56.1 130.3,135.1 120.2,135.1 120.2,80.2 112.2,135.1 102.3,135.1 93.9,80.2 93.9,135.1 84.3,135.1 
					84.3,56.1 99.4,56.1 99.4,56.1 107.6,111.2 115.2,56.1 115.2,56.1 				"/>
				<polygon points="21.1,67.4 21.1,91.1 35.2,91 35.2,91 35.2,102.3 21.1,102.3 21.1,135.1 10.6,135.1 10.6,135.1 10.6,56.1 
					39.6,56.1 39.6,67.3 39.6,67.4 				"/>
			</g>
			<g>
				<line class="st4" x1="10.6" y1="56.1" x2="10.6" y2="135.1"/>
				<line class="st4" x1="39.6" y1="56.1" x2="10.6" y2="56.1"/>
				<line class="st4" x1="39.6" y1="67.3" x2="39.6" y2="56.1"/>
				<line class="st4" x1="21.1" y1="67.4" x2="39.6" y2="67.4"/>
				<polyline class="st4" points="21.1,91.1 21.1,67.4 21.1,67.4 				"/>
				<line class="st4" x1="21.1" y1="91.1" x2="35.2" y2="91"/>
				<line class="st4" x1="35.2" y1="102.3" x2="35.2" y2="91"/>
				<line class="st4" x1="21.1" y1="102.3" x2="35.2" y2="102.3"/>
				<line class="st4" x1="21.1" y1="135.1" x2="21.1" y2="102.3"/>
				<line class="st4" x1="10.6" y1="135.1" x2="21.1" y2="135.1"/>
				<line class="st4" x1="84.3" y1="56.1" x2="84.3" y2="135.1"/>
				<line class="st4" x1="130.3" y1="56.1" x2="130.3" y2="135.1"/>
				<line class="st4" x1="84.3" y1="135.1" x2="93.9" y2="135.1"/>
				<line class="st4" x1="102.3" y1="135.1" x2="112.2" y2="135.1"/>
				<line class="st4" x1="120.2" y1="135.1" x2="130.3" y2="135.1"/>
				<line class="st4" x1="93.9" y1="135.1" x2="93.9" y2="80.2"/>
				<line class="st4" x1="120.2" y1="135.1" x2="120.2" y2="80.2"/>
				<line class="st4" x1="93.9" y1="80.2" x2="102.3" y2="135.1"/>
				<line class="st4" x1="112.2" y1="135.1" x2="120.2" y2="80.2"/>
				<line class="st4" x1="84.3" y1="56.1" x2="99.4" y2="56.1"/>
				<line class="st4" x1="130.3" y1="56.1" x2="115.2" y2="56.1"/>
				<line class="st4" x1="99.4" y1="56.1" x2="107.6" y2="111.2"/>
				<line class="st4" x1="115.2" y1="56.1" x2="107.6" y2="111.2"/>
				<line class="st4" x1="135.3" y1="135.2" x2="145.2" y2="135.2"/>
				<line class="st4" x1="163.2" y1="135.2" x2="173.1" y2="135.2"/>
				<line class="st4" x1="179.1" y1="135.2" x2="189.8" y2="135.2"/>
				<line class="st4" x1="162.4" y1="56.1" x2="146.6" y2="56.1"/>
				<line class="st4" x1="146.6" y1="56.1" x2="135.3" y2="135.2"/>
				<line class="st4" x1="162.4" y1="56.1" x2="173.1" y2="135.2"/>
				<line class="st4" x1="147.7" y1="120.8" x2="160.5" y2="120.8"/>
				<line class="st4" x1="145.2" y1="135.2" x2="147.7" y2="120.8"/>
				<line class="st4" x1="163.2" y1="135.2" x2="160.5" y2="120.8"/>
				<line class="st4" x1="149.1" y1="110" x2="159" y2="110"/>
				<line class="st4" x1="149.1" y1="110" x2="154.1" y2="71.3"/>
				<line class="st4" x1="159" y1="110" x2="154.1" y2="71.3"/>
				<line class="st4" x1="179.1" y1="56.1" x2="179.1" y2="135.2"/>
				<line class="st4" x1="219.3" y1="135.2" x2="229.9" y2="135.2"/>
				<line class="st4" x1="219.3" y1="56.1" x2="219.3" y2="135.2"/>
				<line class="st4" x1="229.9" y1="56.1" x2="229.9" y2="135.2"/>
				<line class="st4" x1="219.3" y1="56.1" x2="229.9" y2="56.1"/>
				<path class="st4" d="M193.1,56.1c14.7,0,18.6,5,18.6,18.2"/>
				<path class="st4" d="M211.7,80.7c0,8.7-2.7,14.1-7,15.8"/>
				<line class="st4" x1="211.7" y1="74.3" x2="211.7" y2="80.7"/>
				<line class="st4" x1="179.1" y1="56.1" x2="193.1" y2="56.1"/>
				<path class="st4" d="M195.3,91.5h-5.6V67h5.6c1.5,0,2.9,0.6,3.9,1.6c1,1,1.6,2.4,1.6,3.9v13.3C200.9,89,198.4,91.5,195.3,91.5z"
					/>
				<path class="st4" d="M189.8,135.2v-31.9h5.6c1.5,0,2.9,0.6,3.9,1.6c1,1,1.6,2.4,1.6,3.9v19.9"/>
				<path class="st4" d="M200.9,128.7c0,3.6,1.3,6.5,2.9,6.5"/>
				<path class="st4" d="M211.6,128.7c0,3.6,1.3,6.5,2.9,6.5"/>
				<line class="st4" x1="203.8" y1="135.2" x2="214.5" y2="135.2"/>
				<path class="st4" d="M211.6,109.8c0.1-8.5-4.4-13.3-6.9-13.3"/>
				<line class="st4" x1="211.6" y1="109.8" x2="211.6" y2="128.7"/>
			</g>
		</g>
	</g>
	<g id="Узор_1_" class="st1">
		<g id="XMLID_3_">
			<g>
				<path class="st5" d="M36.6,184c0,1.8,1.5,3.3,3.3,3.3c1.8,0,3.3-1.5,3.3-3.3v-26.5c0-0.9-0.4-1.7-1-2.3c-0.6-0.6-1.4-1-2.4-1
					c-1.8,0-3.3,1.5-3.3,3.3V184z M49.8,157.8v25.4c0,5.4-4.4,9.8-9.8,9.8s-9.8-4.4-9.8-9.8v-25.4c0-5.4,4.4-9.8,9.8-9.8
					c2.7,0,5.1,1.1,6.9,2.9C48.7,152.7,49.8,155.1,49.8,157.8z"/>
				<path class="st5" d="M224,171.1c1.6,0.1,4.3,2.9,4.3,7.8v11c0,2.1,0.8,3.8,1.8,3.8h-6.7c-1,0-1.8-1.7-1.8-3.8v-11.6
					c0-0.9-0.3-1.7-0.9-2.3c-0.6-0.6-1.3-1-2.2-1h-3.1v18.7h-6.5v-45.9l8.8,0l3.3,0c3.3,0,7.6,3.3,7.6,7.4v10.2
					C228.4,167.9,226,171.1,224,171.1z M222,165.2v-7.7c0-0.9-0.4-1.7-1-2.3c-0.6-0.6-1.5-0.9-2.4-0.9h-3.4v14.1h3.4
					C220.5,168.4,222,166.9,222,165.2z"/>
				<path class="st5" d="M198.3,147.8l6.8,45.9h-6.2l-1.7-8.5h-8l-1.3,8.5h-6.2l7.1-45.9H198.3z M196.2,178.4l-3.1-24.3l-3.1,24.3
					H196.2z"/>
				<path class="st5" d="M173.9,168.9c2.6,0,5.6,4.3,5.6,7.4v8.2c0,1.8-0.4,9-10.4,9h-10.5v-45.8h10.5c7.2,0,9.5,4.2,9.5,6.8v7.8
					C178.6,165.1,176.5,168.9,173.9,168.9z M172.9,183.6v-6.9c0-1-0.4-2-1.1-2.6c-0.7-0.7-1.6-1.1-2.6-1.1h-3.7v14.3h3.7
					C171.2,187.3,172.9,185.7,172.9,183.6z M172.2,163.1v-5.4c0-0.9-0.4-1.8-1-2.4c-0.6-0.6-1.4-1-2.4-1h-3.4v12.1h3.4
					C170.7,166.4,172.2,164.9,172.2,163.1z"/>
				<polygon class="st5" points="144.3,187.1 144.3,193.6 126.2,193.6 126.2,183.8 126.2,157.7 126.2,148.6 144.3,148.6 
					144.3,154.9 132.6,154.9 132.6,167.3 141.7,167.3 141.7,173.7 132.6,173.7 132.6,187.1 				"/>
				<path class="st5" d="M121.9,168.3v15.5c0,5.4-4.4,9.8-9.8,9.8c-2.7,0-5.1-1.1-6.9-2.9c-1.8-1.8-2.9-4.2-2.9-6.9v-26.1
					c0-5.4,4.4-9.8,9.8-9.8c2.7,0,5.1,1.1,6.9,2.9c1.8,1.8,2.9,4.2,2.9,6.9v5.8h-6v-5.7c0-1-0.4-1.8-1-2.5c-0.6-0.6-1.5-1-2.5-1
					c-1.9,0-3.5,1.6-3.5,3.5v16.8v9c0,1,0.4,1.8,1,2.5c0.6,0.6,1.5,1,2.5,1c1.9,0,3.5-1.6,3.5-3.5v-9h-2.9v-6.2H121.9z"/>
				<polygon class="st5" points="98.2,148.6 98.2,193 91.4,193 83.6,161.6 83.6,193.1 83.6,193.1 77.3,193.1 77.3,148.8 85.6,148.8 
					92.4,174.3 92.4,148.6 				"/>
				<path class="st5" d="M72.9,148.6v32.5c0,6.6-4.3,11.9-9.6,11.9c-2.6,0-5-1.3-6.8-3.5c-1.7-2.2-2.8-5.1-2.8-8.4v-32.5h6.3v34.9
					c0,1,0.4,1.9,1,2.6c0.6,0.7,1.5,1.1,2.5,1.1c2,0,3.6-1.6,3.6-3.6v-34.9H72.9z"/>
				<path class="st5" d="M67.6,80.7c25.4,20.7,7.4,42.4-1.2,55.9c5.4-17.1,9.5-46.2-4.9-51.1c-13.4-3.9,1.8-25.3,14.4-39.3
					C63.3,60.3,61.9,76.4,67.6,80.7z"/>
				<path class="st5" d="M63.3,129.4c4.6,0,0,8.1-0.8,8.1c-8.7-0.6-17.9,0.9-17.8-14.4v-40c11.7,13,9.6,33.8,9.6,38.5
					C54.5,130.5,58.4,129.4,63.3,129.4z"/>
				<polygon class="st5" points="27.6,186.9 27.6,193.1 10.6,193.1 10.6,148.8 17.1,148.8 17.1,186.9 				"/>
			</g>
			<g>
				<line class="st6" x1="10.6" y1="193.1" x2="27.6" y2="193.1"/>
				<line class="st6" x1="10.6" y1="148.8" x2="10.6" y2="193.1"/>
				<line class="st6" x1="17.1" y1="148.8" x2="17.1" y2="186.9"/>
				<line class="st6" x1="10.6" y1="148.8" x2="17.1" y2="148.8"/>
				<line class="st6" x1="17.1" y1="186.9" x2="27.6" y2="186.9"/>
				<line class="st6" x1="27.6" y1="193.1" x2="27.6" y2="186.9"/>
				<path class="st6" d="M39.9,187.3c-1.8,0-3.3-1.5-3.3-3.3v-26.5c0-1.8,1.5-3.3,3.3-3.3c0.9,0,1.7,0.4,2.4,1c0.6,0.6,1,1.4,1,2.3
					V184C43.2,185.8,41.7,187.3,39.9,187.3z"/>
				<path class="st6" d="M72.9,148.6v32.5c0,6.6-4.3,11.9-9.6,11.9c-2.6,0-5-1.3-6.8-3.5c-1.7-2.2-2.8-5.1-2.8-8.4v-32.5"/>
				<path class="st6" d="M67.2,148.6v34.9c0,2-1.6,3.6-3.6,3.6c-1,0-1.9-0.4-2.5-1.1c-0.7-0.7-1-1.6-1-2.6v-34.9"/>
				<line class="st6" x1="53.7" y1="148.6" x2="60.1" y2="148.6"/>
				<line class="st6" x1="67.2" y1="148.6" x2="72.9" y2="148.6"/>
				<path class="st6" d="M40,193.1c-5.4,0-9.8-4.4-9.8-9.8v-25.4c0-5.4,4.4-9.8,9.8-9.8c2.7,0,5.1,1.1,6.9,2.9
					c1.8,1.8,2.9,4.2,2.9,6.9v25.4C49.8,188.7,45.4,193.1,40,193.1z"/>
				<line class="st6" x1="77.3" y1="193.1" x2="83.6" y2="193.1"/>
				<line class="st6" x1="77.3" y1="148.8" x2="77.3" y2="193.1"/>
				<line class="st6" x1="83.6" y1="161.6" x2="83.6" y2="193.1"/>
				<line class="st6" x1="77.3" y1="148.8" x2="85.6" y2="148.8"/>
				<line class="st6" x1="92.4" y1="148.6" x2="98.2" y2="148.6"/>
				<line class="st6" x1="98.2" y1="148.6" x2="98.2" y2="193"/>
				<line class="st6" x1="92.4" y1="148.6" x2="92.4" y2="174.3"/>
				<line class="st6" x1="91.4" y1="193" x2="98.2" y2="193"/>
				<line class="st6" x1="85.6" y1="148.8" x2="92.4" y2="174.3"/>
				<line class="st6" x1="83.6" y1="161.6" x2="91.4" y2="193"/>
				<path class="st6" d="M121.9,183.8c0,5.4-4.4,9.8-9.8,9.8c-2.7,0-5.1-1.1-6.9-2.9c-1.8-1.8-2.9-4.2-2.9-6.9v-26.1
					c0-5.4,4.4-9.8,9.8-9.8c2.7,0,5.1,1.1,6.9,2.9c1.8,1.8,2.9,4.2,2.9,6.9"/>
				<line class="st6" x1="121.9" y1="168.3" x2="121.9" y2="183.8"/>
				<line class="st6" x1="121.9" y1="157.7" x2="121.9" y2="163.5"/>
				<path class="st6" d="M115.8,183.6c0,1.9-1.6,3.5-3.5,3.5c-1,0-1.9-0.4-2.5-1c-0.6-0.6-1-1.5-1-2.5v-9v-16.8
					c0-1.9,1.6-3.5,3.5-3.5c1,0,1.8,0.4,2.5,1c0.6,0.6,1,1.5,1,2.5"/>
				<polyline class="st6" points="121.9,168.3 112.9,168.3 112.9,174.5 115.8,174.5 				"/>
				<line class="st6" x1="115.8" y1="174.5" x2="115.8" y2="183.6"/>
				<line class="st6" x1="115.8" y1="157.7" x2="115.8" y2="163.5"/>
				<line class="st6" x1="121.9" y1="163.5" x2="115.8" y2="163.5"/>
				<polyline class="st6" points="144.3,193.6 126.2,193.6 126.2,183.8 126.2,157.7 126.2,148.6 144.3,148.6 				"/>
				<polyline class="st6" points="141.7,167.3 132.6,167.3 132.6,154.9 144.3,154.9 				"/>
				<polyline class="st6" points="144.3,187.1 132.6,187.1 132.6,173.7 141.7,173.7 				"/>
				<line class="st6" x1="144.3" y1="148.6" x2="144.3" y2="154.9"/>
				<line class="st6" x1="141.7" y1="167.3" x2="141.7" y2="173.7"/>
				<line class="st6" x1="144.3" y1="187.1" x2="144.3" y2="193.6"/>
				<polyline class="st6" points="169.1,193.6 158.6,193.6 158.6,147.8 169.1,147.8 				"/>
				<path class="st6" d="M169.1,147.8c7.2,0,9.5,4.2,9.5,6.8v7.8c0,2.7-2.1,6.5-4.7,6.5"/>
				<path class="st6" d="M169.1,193.6c9.9,0,10.4-7.2,10.4-9v-8.2c0-3.2-3-7.4-5.6-7.4c0,0,0,0,0,0"/>
				<path class="st6" d="M168.8,166.4h-3.4v-12.1h3.4c0.9,0,1.8,0.4,2.4,1c0.6,0.6,1,1.5,1,2.4v5.4
					C172.2,164.9,170.7,166.4,168.8,166.4z"/>
				<path class="st6" d="M169.2,187.3h-3.7V173h3.7c1,0,2,0.4,2.6,1.1c0.7,0.7,1.1,1.6,1.1,2.6v6.9
					C172.9,185.7,171.2,187.3,169.2,187.3z"/>
				<line class="st6" x1="181.6" y1="193.7" x2="187.8" y2="193.7"/>
				<line class="st6" x1="198.8" y1="193.7" x2="205" y2="193.7"/>
				<line class="st6" x1="198.3" y1="147.8" x2="188.7" y2="147.8"/>
				<line class="st6" x1="188.7" y1="147.8" x2="181.6" y2="193.7"/>
				<line class="st6" x1="198.3" y1="147.8" x2="205" y2="193.7"/>
				<line class="st6" x1="189.1" y1="185.2" x2="197.1" y2="185.2"/>
				<line class="st6" x1="187.8" y1="193.7" x2="189.1" y2="185.2"/>
				<line class="st6" x1="198.8" y1="193.7" x2="197.1" y2="185.2"/>
				<line class="st6" x1="190" y1="178.4" x2="196.2" y2="178.4"/>
				<line class="st6" x1="190" y1="178.4" x2="193.1" y2="154.1"/>
				<line class="st6" x1="196.2" y1="178.4" x2="193.1" y2="154.1"/>
				<line class="st6" x1="208.8" y1="193.7" x2="215.3" y2="193.7"/>
				<line class="st6" x1="208.8" y1="147.8" x2="208.8" y2="193.7"/>
				<line class="st6" x1="208.8" y1="147.8" x2="217.6" y2="147.8"/>
				<path class="st6" d="M218.6,168.4h-3.4v-14.1h3.4c0.9,0,1.8,0.4,2.4,0.9c0.6,0.6,1,1.4,1,2.3v7.7
					C222,166.9,220.5,168.4,218.6,168.4z"/>
				<path class="st6" d="M215.3,193.7V175h3.1c0.9,0,1.6,0.4,2.2,1c0.6,0.6,0.9,1.4,0.9,2.3v11.6"/>
				<path class="st6" d="M221.6,189.9c0,2.1,0.8,3.8,1.8,3.8"/>
				<path class="st6" d="M228.3,189.9c0,2.1,0.8,3.8,1.8,3.8"/>
				<line class="st6" x1="223.4" y1="193.7" x2="230.1" y2="193.7"/>
				<path class="st6" d="M228.3,178.9c0-4.9-2.7-7.7-4.3-7.8c0,0,0,0-0.1,0"/>
				<line class="st6" x1="228.3" y1="178.9" x2="228.3" y2="189.9"/>
				<path class="st6" d="M217.6,147.8l3.3,0c3.3,0,7.6,3.3,7.6,7.4v10.2c0,2.6-2.4,5.7-4.4,5.7"/>
				<path class="st6" d="M62.5,137.5c-8.7-0.6-17.9,0.9-17.8-14.4v-40"/>
				<path class="st6" d="M44.7,83.1c11.7,13,9.6,33.8,9.6,38.5"/>
				<path class="st6" d="M54.3,121.6c0.2,8.9,4,7.8,9,7.8"/>
				<path class="st6" d="M63.3,129.4c4.6,0,0,8.1-0.8,8.1"/>
				<path class="st6" d="M75.9,46.2C63.3,60.3,48.1,81.7,61.5,85.6"/>
				<path class="st6" d="M75.9,46.2c-12.5,14.1-14,30.2-8.3,34.5"/>
				<path class="st6" d="M61.5,85.6c14.4,4.9,10.3,34,4.9,51.1"/>
				<path class="st6" d="M67.6,80.7c25.4,20.7,7.4,42.4-1.2,55.9"/>
			</g>
		</g>
	</g>
</g>
<g id="Слой_5">
	<g id="Зеленый_1_">
		<g id="U">
			<g id="XMLID_5_">
				<g>
					<path class="st5" d="M149.7,156.9h2.9v15.7c0,0.9,0.7,1.6,1.6,1.6c0.9,0,1.6-0.7,1.6-1.6v-15.7h2.5v14.6c0,3-1.9,5.4-4.3,5.4
						c-1.2,0-2.3-0.6-3-1.6c-0.8-1-1.3-2.3-1.3-3.8V156.9z"/>
					<path class="st5" d="M228.3,164.4c0,1.2-1.1,2.6-2,2.6c0.7,0,1.9,1.3,1.9,3.5v4.9c0,1,0.4,1.7,0.8,1.7h-3
						c-0.5,0-0.8-0.8-0.8-1.7v-5.2c0-0.8-0.6-1.5-1.4-1.5h-1.4v6.7v1.7h-2.9l0-20.7l4,0l1.5,0c1.5,0,3.4,1.5,3.4,3.3V164.4z
						 M222.4,165.7h1.5c0.8,0,1.5-0.6,1.5-1.4v-3.4c0-0.8-0.7-1.4-1.5-1.4h-1.5V165.7z"/>
					<path class="st5" d="M62.3,139.4c4.6,0.1,0,8.1-0.8,8.1c-8.7-0.6-17.9,0.9-17.8-14.4v-40c11.7,13,9.6,33.8,9.6,38.5
						C53.5,140.5,57.3,139.4,62.3,139.4z"/>
					<path class="st5" d="M66.6,90.7c25.3,20.8,7.4,42.4-1.2,55.9c5.4-17.1,9.5-46.2-4.8-51.1c-13.4-3.9,1.8-25.3,14.4-39.3
						C62.3,70.3,60.9,86.4,66.6,90.7z"/>
					<path class="st5" d="M143.6,156.6c2.4,0,4.3,1.9,4.3,4.3v11.7c0,2.4-1.9,4.3-4.3,4.3h-0.2c-2.4,0-4.3-1.9-4.3-4.3v-11.7
						c0-2.4,1.9-4.3,4.3-4.3H143.6z M142,160.8v12c0,0.8,0.6,1.5,1.4,1.5h0.1c0.8,0,1.5-0.7,1.5-1.5v-12c0-0.8-0.7-1.5-1.5-1.5h-0.1
						C142.6,159.3,142,160,142,160.8z"/>
					<path class="st5" d="M177.7,168.5h-1.3v-2.8h4v7c0,2.4-2,4.4-4.4,4.4c-1.2,0-2.3-0.5-3.1-1.3c-0.8-0.8-1.3-1.9-1.3-3.1v-11.8
						c0-2.4,2-4.4,4.4-4.4c1.2,0,2.3,0.5,3.1,1.3c0.8,0.8,1.3,1.9,1.3,3.1v2.6h-2.7V161c0-0.9-0.7-1.6-1.6-1.6
						c-0.9,0-1.6,0.7-1.6,1.6v7.6v4.1c0,0.9,0.7,1.6,1.6,1.6c0.9,0,1.6-0.7,1.6-1.6V168.5z"/>
					<polygon class="st5" points="182.3,177.1 182.3,156.9 190.5,156.9 190.5,159.7 185.2,159.7 185.2,165.3 189.3,165.3 
						189.3,168.1 185.2,168.1 185.2,174.2 190.5,174.2 190.5,177.1 					"/>
					<path class="st5" d="M201.7,167.8H200v6.5h1.7c0.9,0,1.7-0.8,1.7-1.7v-3.1C203.3,168.6,202.6,167.8,201.7,167.8z M205.9,163.1
						c0,1.2-1,2.9-2.1,2.9c1.1,0,2.5,1.9,2.5,3.3v3.7c0,0.8-0.2,4.1-4.7,4.1h-4.7v-20.6h4.7c3.2,0,4.3,1.9,4.3,3.1V163.1z
						 M201.5,164.9c0.8,0,1.5-0.7,1.5-1.5v-2.4c0-0.8-0.7-1.5-1.5-1.5H200v5.4H201.5z"/>
					<path class="st5" d="M212.4,159.3l-1.4,11h2.8L212.4,159.3z M207.2,177.1l3.2-20.7h4.3l3,20.7H215l-0.8-3.8h-3.6l-0.6,3.8
						H207.2z"/>
					<polygon class="st5" points="133.2,174.1 137.9,174.1 137.9,176.9 130.3,176.9 130.3,156.9 133.2,156.9 					"/>
					<polygon class="st5" points="163.1,162.7 163.1,176.9 160.3,176.9 160.3,156.9 164,156.9 167.1,168.4 167.1,156.9 169.7,156.9 
						169.7,176.8 166.7,176.8 					"/>
				</g>
				<g>
					<line class="st7" x1="130.3" y1="176.9" x2="137.9" y2="176.9"/>
					<line class="st7" x1="130.3" y1="156.9" x2="130.3" y2="176.9"/>
					<line class="st7" x1="133.2" y1="156.9" x2="133.2" y2="174.1"/>
					<line class="st7" x1="130.3" y1="156.9" x2="133.2" y2="156.9"/>
					<line class="st7" x1="133.2" y1="174.1" x2="137.9" y2="174.1"/>
					<line class="st7" x1="137.9" y1="176.9" x2="137.9" y2="174.1"/>
					<path class="st7" d="M143.5,174.3L143.5,174.3c-0.9,0-1.5-0.7-1.5-1.5v-12c0-0.8,0.6-1.5,1.4-1.5h0.1c0.8,0,1.5,0.6,1.5,1.5v12
						C145,173.6,144.3,174.3,143.5,174.3z"/>
					<path class="st7" d="M158.3,156.9v14.6c0,3-1.9,5.4-4.3,5.4c-1.2,0-2.3-0.6-3-1.6c-0.8-1-1.3-2.3-1.3-3.8v-14.6"/>
					<path class="st7" d="M155.8,156.9v15.7c0,0.9-0.7,1.6-1.6,1.6c-0.9,0-1.6-0.7-1.6-1.6v-15.7"/>
					<line class="st7" x1="149.7" y1="156.9" x2="152.6" y2="156.9"/>
					<line class="st7" x1="155.8" y1="156.9" x2="158.3" y2="156.9"/>
					<path class="st7" d="M143.6,176.9h-0.2c-2.4,0-4.3-1.9-4.3-4.3v-11.7c0-2.4,1.9-4.3,4.3-4.3h0.2c2.4,0,4.3,1.9,4.3,4.3v11.7
						C147.9,174.9,146,176.9,143.6,176.9z"/>
					<line class="st7" x1="160.3" y1="176.9" x2="163.1" y2="176.9"/>
					<line class="st7" x1="160.3" y1="156.9" x2="160.3" y2="176.9"/>
					<line class="st7" x1="163.1" y1="162.7" x2="163.1" y2="176.9"/>
					<line class="st7" x1="160.3" y1="156.9" x2="164" y2="156.9"/>
					<line class="st7" x1="167.1" y1="156.9" x2="169.7" y2="156.9"/>
					<line class="st7" x1="169.7" y1="156.9" x2="169.7" y2="176.8"/>
					<line class="st7" x1="167.1" y1="156.9" x2="167.1" y2="168.4"/>
					<line class="st7" x1="166.7" y1="176.8" x2="169.7" y2="176.8"/>
					<line class="st7" x1="164" y1="156.9" x2="167.1" y2="168.4"/>
					<line class="st7" x1="163.1" y1="162.7" x2="166.7" y2="176.8"/>
					<path class="st7" d="M180.4,172.7c0,2.4-2,4.4-4.4,4.4c-1.2,0-2.3-0.5-3.1-1.3c-0.8-0.8-1.3-1.9-1.3-3.1v-11.8
						c0-2.4,2-4.4,4.4-4.4c1.2,0,2.3,0.5,3.1,1.3c0.8,0.8,1.3,1.9,1.3,3.1"/>
					<line class="st7" x1="180.4" y1="165.7" x2="180.4" y2="172.7"/>
					<line class="st7" x1="180.4" y1="160.9" x2="180.4" y2="163.5"/>
					<path class="st7" d="M177.7,172.6c0,0.9-0.7,1.6-1.6,1.6c-0.9,0-1.6-0.7-1.6-1.6v-4.1V161c0-0.9,0.7-1.6,1.6-1.6
						c0.9,0,1.6,0.7,1.6,1.6"/>
					<polyline class="st7" points="180.4,165.7 176.3,165.7 176.3,168.5 177.7,168.5 					"/>
					<line class="st7" x1="177.7" y1="168.5" x2="177.7" y2="172.6"/>
					<line class="st7" x1="177.7" y1="161" x2="177.7" y2="163.5"/>
					<line class="st7" x1="180.4" y1="163.5" x2="177.7" y2="163.5"/>
					<polyline class="st7" points="190.5,177.1 182.3,177.1 182.3,156.9 190.5,156.9 					"/>
					<polyline class="st7" points="189.3,165.3 185.2,165.3 185.2,159.7 190.5,159.7 					"/>
					<polyline class="st7" points="190.5,174.2 185.2,174.2 185.2,168.1 189.3,168.1 					"/>
					<line class="st7" x1="190.5" y1="156.9" x2="190.5" y2="159.7"/>
					<line class="st7" x1="189.3" y1="165.3" x2="189.3" y2="168.1"/>
					<line class="st7" x1="190.5" y1="174.2" x2="190.5" y2="177.1"/>
					<polyline class="st7" points="201.6,177.1 196.9,177.1 196.9,156.5 201.6,156.5 					"/>
					<path class="st7" d="M201.6,156.5c3.2,0,4.3,1.9,4.3,3.1v3.5c0,1.2-1,2.9-2.1,2.9"/>
					<path class="st7" d="M201.6,177.1c4.5,0,4.7-3.2,4.7-4.1v-3.7c0-1.4-1.4-3.3-2.5-3.3"/>
					<path class="st7" d="M201.5,164.9H200v-5.4h1.5c0.8,0,1.5,0.7,1.5,1.5v2.4C203,164.2,202.3,164.9,201.5,164.9z"/>
					<path class="st7" d="M201.7,174.3H200v-6.5h1.7c0.9,0,1.7,0.8,1.7,1.7v3.1C203.3,173.5,202.6,174.3,201.7,174.3z"/>
					<line class="st7" x1="207.2" y1="177.1" x2="210" y2="177.1"/>
					<line class="st7" x1="215" y1="177.1" x2="217.8" y2="177.1"/>
					<line class="st7" x1="214.8" y1="156.5" x2="210.5" y2="156.5"/>
					<line class="st7" x1="210.5" y1="156.5" x2="207.2" y2="177.1"/>
					<line class="st7" x1="214.8" y1="156.5" x2="217.8" y2="177.1"/>
					<line class="st7" x1="210.6" y1="173.3" x2="214.2" y2="173.3"/>
					<line class="st7" x1="210" y1="177.1" x2="210.6" y2="173.3"/>
					<line class="st7" x1="215" y1="177.1" x2="214.2" y2="173.3"/>
					<line class="st7" x1="211" y1="170.3" x2="213.8" y2="170.3"/>
					<line class="st7" x1="211" y1="170.3" x2="212.4" y2="159.3"/>
					<line class="st7" x1="213.8" y1="170.3" x2="212.4" y2="159.3"/>
					<line class="st7" x1="219.5" y1="177.1" x2="222.4" y2="177.1"/>
					<line class="st7" x1="219.5" y1="156.5" x2="219.5" y2="177.1"/>
					<line class="st7" x1="219.5" y1="156.5" x2="223.5" y2="156.5"/>
					<path class="st7" d="M223.9,165.7h-1.5v-6.3h1.5c0.8,0,1.5,0.7,1.5,1.4v3.4C225.4,165.1,224.7,165.7,223.9,165.7z"/>
					<path class="st7" d="M222.4,177.1v-1.7v-6.7h1.4c0.8,0,1.4,0.7,1.4,1.5v5.2"/>
					<path class="st7" d="M225.2,175.4c0,1,0.4,1.7,0.8,1.7"/>
					<path class="st7" d="M228.3,175.4c0,1,0.4,1.7,0.8,1.7"/>
					<line class="st7" x1="226.1" y1="177.1" x2="229.1" y2="177.1"/>
					<path class="st7" d="M228.3,170.5c0-2.2-1.2-3.5-1.9-3.5c0,0,0,0,0,0"/>
					<line class="st7" x1="228.3" y1="170.5" x2="228.3" y2="175.4"/>
					<path class="st7" d="M223.5,156.5l1.5,0c1.5,0,3.4,1.5,3.4,3.3v4.6c0,1.2-1.1,2.6-2,2.6"/>
					<path class="st7" d="M61.5,147.5c-8.7-0.6-17.9,0.9-17.8-14.4v-40"/>
					<path class="st7" d="M43.7,93.1c11.7,13,9.6,33.8,9.6,38.5"/>
					<path class="st7" d="M53.3,131.6c0.2,8.9,4,7.8,9,7.8"/>
					<path class="st7" d="M62.3,139.4c4.6,0.1,0,8.1-0.8,8.1"/>
					<path class="st7" d="M74.9,56.2C62.3,70.3,47.1,91.7,60.5,95.6"/>
					<path class="st7" d="M74.9,56.2c-12.6,14.1-14,30.2-8.3,34.5"/>
					<path class="st7" d="M60.5,95.6c14.4,4.9,10.3,34,4.8,51.1"/>
					<path class="st7" d="M66.6,90.7c25.3,20.8,7.4,42.4-1.2,55.9"/>
				</g>
			</g>
		</g>
	</g>
	<g id="Fumari_2_">
		<g id="XMLID_6_">
			<g>
				<rect x="219.3" y="66.1" class="st8" width="10.6" height="79.1"/>
				<path class="st8" d="M195.3,101.5c3.1,0,5.6-2.5,5.6-5.6V82.6c0-1.5-0.6-2.9-1.6-3.9c-1-1-2.4-1.6-3.9-1.6h-5.6v24.4H195.3z
					 M179.1,145.2V66.1l14,0c14.7,0,18.6,5.1,18.6,18.2v6.4c0,8.7-2.7,14.1-7,15.8c2.6,0,7,4.8,6.9,13.3v18.8c0,3.6,1.3,6.5,2.9,6.5
					h-10.7c-1.6,0-2.9-2.9-2.9-6.5v-19.9c0-1.5-0.6-2.9-1.6-3.9c-1-1-2.4-1.6-3.9-1.6h-5.6v31.9H179.1z"/>
				<path class="st8" d="M146.6,66.1h15.8v0.1l10.7,79h-9.9l-2.8-14.4h-12.8l-2.5,14.4h-9.9L146.6,66.1L146.6,66.1z M154.1,81.3
					l-4.9,38.7h9.9L154.1,81.3z"/>
				<polygon class="st8" points="115.2,66.1 130.3,66.1 130.3,145.1 120.2,145.1 120.2,90.2 112.2,145.1 102.3,145.1 93.9,90.2 
					93.9,145.1 84.3,145.1 84.3,66.1 99.4,66.1 99.4,66.1 107.6,121.2 115.2,66.1 				"/>
				<polygon class="st8" points="21.1,101.1 35.2,101 35.2,101 35.2,112.3 21.1,112.3 21.1,145.1 10.6,145.1 10.6,145.1 10.6,66.1 
					39.6,66.1 39.6,77.3 39.6,77.4 21.1,77.4 				"/>
			</g>
			<g>
				<line class="st4" x1="10.6" y1="66.1" x2="10.6" y2="145.1"/>
				<line class="st4" x1="39.6" y1="66.1" x2="10.6" y2="66.1"/>
				<line class="st4" x1="39.6" y1="77.3" x2="39.6" y2="66.1"/>
				<line class="st4" x1="21.1" y1="77.4" x2="39.6" y2="77.4"/>
				<line class="st4" x1="21.1" y1="101.1" x2="21.1" y2="77.4"/>
				<line class="st4" x1="21.1" y1="101.1" x2="35.2" y2="101"/>
				<line class="st4" x1="35.2" y1="112.3" x2="35.2" y2="101"/>
				<line class="st4" x1="21.1" y1="112.3" x2="35.2" y2="112.3"/>
				<line class="st4" x1="21.1" y1="145.1" x2="21.1" y2="112.3"/>
				<line class="st4" x1="10.6" y1="145.1" x2="21.1" y2="145.1"/>
				<line class="st4" x1="84.3" y1="66.1" x2="84.3" y2="145.1"/>
				<line class="st4" x1="130.3" y1="66.1" x2="130.3" y2="145.1"/>
				<line class="st4" x1="84.3" y1="145.1" x2="93.9" y2="145.1"/>
				<line class="st4" x1="102.3" y1="145.1" x2="112.2" y2="145.1"/>
				<line class="st4" x1="120.2" y1="145.1" x2="130.3" y2="145.1"/>
				<line class="st4" x1="93.9" y1="145.1" x2="93.9" y2="90.2"/>
				<line class="st4" x1="120.2" y1="145.1" x2="120.2" y2="90.2"/>
				<line class="st4" x1="93.9" y1="90.2" x2="102.3" y2="145.1"/>
				<line class="st4" x1="112.2" y1="145.1" x2="120.2" y2="90.2"/>
				<line class="st4" x1="84.3" y1="66.1" x2="99.4" y2="66.1"/>
				<line class="st4" x1="130.3" y1="66.1" x2="115.2" y2="66.1"/>
				<line class="st4" x1="99.4" y1="66.1" x2="107.6" y2="121.2"/>
				<line class="st4" x1="115.2" y1="66.1" x2="107.6" y2="121.2"/>
				<line class="st4" x1="135.3" y1="145.2" x2="145.2" y2="145.2"/>
				<line class="st4" x1="163.2" y1="145.2" x2="173.1" y2="145.2"/>
				<line class="st4" x1="179.1" y1="145.2" x2="189.8" y2="145.2"/>
				<line class="st4" x1="162.4" y1="66.1" x2="146.6" y2="66.1"/>
				<line class="st4" x1="146.6" y1="66.1" x2="135.3" y2="145.2"/>
				<line class="st4" x1="162.4" y1="66.1" x2="173.1" y2="145.2"/>
				<line class="st4" x1="147.7" y1="130.8" x2="160.5" y2="130.8"/>
				<line class="st4" x1="145.2" y1="145.2" x2="147.7" y2="130.8"/>
				<line class="st4" x1="163.2" y1="145.2" x2="160.5" y2="130.8"/>
				<line class="st4" x1="149.1" y1="120" x2="159" y2="120"/>
				<line class="st4" x1="149.1" y1="120" x2="154.1" y2="81.3"/>
				<line class="st4" x1="159" y1="120" x2="154.1" y2="81.3"/>
				<line class="st4" x1="179.1" y1="66.1" x2="179.1" y2="145.2"/>
				<line class="st4" x1="219.3" y1="145.2" x2="229.9" y2="145.2"/>
				<line class="st4" x1="219.3" y1="66.1" x2="219.3" y2="145.2"/>
				<line class="st4" x1="229.9" y1="66.1" x2="229.9" y2="145.2"/>
				<line class="st4" x1="219.3" y1="66.1" x2="229.9" y2="66.1"/>
				<path class="st4" d="M193.1,66.1c14.7,0,18.6,5.1,18.6,18.2"/>
				<path class="st4" d="M211.7,90.7c0,8.7-2.7,14.1-7,15.8"/>
				<line class="st4" x1="211.7" y1="84.3" x2="211.7" y2="90.7"/>
				<line class="st4" x1="179.1" y1="66.1" x2="193.1" y2="66.1"/>
				<path class="st4" d="M195.3,101.5h-5.6V77h5.6c1.5,0,2.9,0.6,3.9,1.6c1,1,1.6,2.4,1.6,3.9v13.3
					C200.9,99,198.4,101.5,195.3,101.5z"/>
				<path class="st4" d="M189.8,145.2v-31.9h5.6c1.5,0,2.9,0.6,3.9,1.6c1,1,1.6,2.4,1.6,3.9v19.9"/>
				<path class="st4" d="M200.9,138.6c0,3.6,1.3,6.5,2.9,6.5"/>
				<path class="st4" d="M211.6,138.6c0,3.6,1.3,6.5,2.9,6.5"/>
				<line class="st4" x1="203.8" y1="145.2" x2="214.5" y2="145.2"/>
				<path class="st4" d="M211.6,119.8c0.1-8.5-4.4-13.3-6.9-13.3"/>
				<line class="st4" x1="211.6" y1="119.8" x2="211.6" y2="138.6"/>
			</g>
		</g>
	</g>
</g>
</svg>
